<svg xmlns="http://www.w3.org/2000/svg" width="577" height="240" viewBox="0 0 577 240" version="1.1"><path d="M 50.627 53.529 C 50.282 54.428, 50 84.997, 50 121.459 C 50 179.169, 50.194 187.916, 51.500 189 C 52.697 189.993, 53.304 189.992, 54.507 188.994 C 55.827 187.899, 55.982 179.360, 55.757 120.122 L 55.500 52.500 53.377 52.197 C 52.125 52.018, 50.997 52.565, 50.627 53.529 M 344 110 L 344 157 353 157 L 362 157 362 110 L 362 63 353 63 L 344 63 344 110 M 377 71 L 377 79 386 79 L 395 79 395 71 L 395 63 386 63 L 377 63 377 71 M 488 110 L 488 157 497 157 L 506 157 506.094 145.750 L 506.188 134.500 510.469 130.736 L 514.749 126.972 518.224 132.736 C 520.136 135.906, 524.017 142.246, 526.850 146.823 C 529.682 151.401, 532 155.564, 532 156.073 C 532 156.587, 536.956 157, 543.107 157 C 551.909 157, 554.109 156.725, 553.706 155.677 C 553.427 154.949, 547.517 145.729, 540.572 135.188 C 533.628 124.647, 527.728 115.454, 527.461 114.758 C 527.194 114.063, 532.381 108.102, 538.988 101.512 C 545.594 94.923, 551.001 89.299, 551.002 89.016 C 551.003 88.732, 546.391 88.619, 540.752 88.764 L 530.500 89.027 518.284 101.764 L 506.068 114.500 506.034 88.750 L 506 63 497 63 L 488 63 488 110 M 103.107 88.371 C 102.300 89.344, 102.047 98.381, 102.235 119.512 C 102.478 146.796, 102.649 149.376, 104.278 150.391 C 105.655 151.250, 106.273 151.161, 107.013 150 C 108.496 147.673, 108.297 89.697, 106.800 88.200 C 105.253 86.653, 104.504 86.687, 103.107 88.371 M 248.459 88.880 C 244.742 90.568, 241.325 93.846, 238.309 98.616 C 237.304 100.205, 237.108 99.599, 237.059 94.750 L 237 89 228.500 89 L 220 89 220 123 L 220 157 228.926 157 L 237.853 157 238.176 136.750 C 238.466 118.648, 238.712 116.140, 240.500 113.105 C 243.741 107.603, 247.201 105.646, 254.511 105.180 L 261 104.767 261 95.884 L 261 87 256.750 87.022 C 254.412 87.034, 250.681 87.870, 248.459 88.880 M 287.718 88.092 C 282.102 89.414, 278.761 91.415, 274.741 95.864 C 271.552 99.395, 269.022 105.079, 269.006 108.750 C 269.002 109.658, 271.464 110, 278 110 C 286.444 110, 287 109.872, 287 107.923 C 287 106.781, 288.315 104.531, 289.923 102.923 C 292.488 100.358, 293.563 100, 298.701 100 C 305.218 100, 308.546 101.676, 310.089 105.733 C 312.322 111.608, 309.429 113.528, 294.582 116.028 C 281.108 118.296, 275.485 120.544, 271.265 125.350 C 265.933 131.424, 265.485 142.602, 270.285 149.854 C 276.033 158.541, 290.911 161.214, 302.353 155.616 C 305.540 154.057, 308.387 152.155, 308.680 151.391 C 309.681 148.784, 311.868 149.944, 312.187 153.250 L 312.500 156.500 321 156.785 L 329.500 157.071 329.257 145.285 C 329.124 138.803, 328.891 126.525, 328.741 118 C 328.493 103.976, 328.249 102.117, 326.180 98.483 C 321.765 90.726, 312.909 86.935, 299.591 87.100 C 295.141 87.156, 289.798 87.602, 287.718 88.092 M 438.500 88.490 C 436.267 89.273, 432.843 91.741, 430.750 94.075 L 427 98.257 427 93.702 L 427 89.147 418.498 88.823 L 409.995 88.500 409.998 122.750 L 410 157 418.932 157 L 427.865 157 428.182 134.250 C 428.468 113.775, 428.696 111.177, 430.456 108.266 C 433.785 102.763, 442.514 100.344, 449.483 102.994 C 454.325 104.834, 455 108.627, 455 133.968 L 455 157 464 157 L 473 157 473 131.126 C 473 97.969, 472.060 94.829, 460.500 89.377 C 454.657 86.622, 444.945 86.230, 438.500 88.490 M 186.838 111.500 C 186.516 133.389, 186.393 134.651, 184.276 137.618 C 181.335 141.741, 177.146 143.365, 170.978 142.772 C 165.399 142.236, 162.931 140.482, 160.477 135.309 C 159.008 132.214, 158.897 129.276, 159.538 110.400 L 160.264 89 151.132 89 L 142 89 142 98.035 C 142 106.658, 142.088 107.023, 143.934 106.035 C 147.134 104.323, 150.767 104.829, 152.443 107.223 C 153.675 108.981, 153.997 112.377, 153.985 123.473 C 153.976 131.188, 153.639 137.995, 153.235 138.600 C 151.717 140.873, 148.075 142.110, 146.066 141.035 C 143.167 139.484, 142.720 139.747, 143.431 142.583 C 145.826 152.125, 154.426 158, 165.999 158 C 174.299 158, 178.279 156.549, 183.890 151.481 L 188 147.767 188 152.384 L 188 157 196.500 157 L 205 157 205 123.071 L 205 89.142 196.088 88.821 L 187.176 88.500 186.838 111.500 M 92 123.871 C 92 143.818, 92.391 159.124, 92.910 159.444 C 93.410 159.753, 94.541 159.730, 95.423 159.391 C 96.858 158.841, 96.998 155.148, 96.763 124.138 L 96.500 89.500 94.250 89.180 L 92 88.861 92 123.871 M 377 123 L 377 157 386 157 L 395 157 395 123 L 395 89 386 89 L 377 89 377 123 M 81 123.893 C 81 153.038, 81.181 156.856, 82.590 157.396 C 83.465 157.732, 84.590 157.753, 85.090 157.444 C 85.607 157.125, 86 142.645, 86 123.941 L 86 91 83.500 91 L 81 91 81 123.893 M 114.250 94.731 C 112.354 95.392, 112.443 154.572, 114.341 155.300 C 117.665 156.576, 117.914 154.620, 118.001 126.467 C 118.048 111.085, 118.068 97.761, 118.044 96.857 C 117.996 95.053, 116.204 94.049, 114.250 94.731 M 71.105 97.373 C 70.301 98.342, 70.044 106.370, 70.233 124.623 L 70.500 150.500 73 150.500 L 75.500 150.500 75.788 125.255 C 76.064 101.084, 75.594 96, 73.087 96 C 72.624 96, 71.732 96.618, 71.105 97.373 M 124 123.430 L 124 144 126.521 144 L 129.041 144 128.771 123.750 C 128.501 103.605, 128.488 103.498, 126.250 103.180 L 124 102.861 124 123.430 M 145.750 109.092 C 144.233 109.966, 144.002 111.721, 144.015 122.300 C 144.031 135.191, 144.584 137.418, 147.620 136.836 C 149.322 136.510, 149.526 135.294, 149.778 123.967 C 150.079 110.434, 149.181 107.118, 145.750 109.092 M 134.466 110.229 C 134.175 110.986, 134.064 117.432, 134.219 124.553 C 134.493 137.169, 134.558 137.508, 136.778 137.823 L 139.056 138.146 138.778 123.836 C 138.531 111.121, 138.304 109.487, 136.747 109.189 C 135.783 109.004, 134.756 109.472, 134.466 110.229 M 39.763 129.180 C 39.633 139.806, 39.484 151.875, 39.432 156 C 39.380 160.125, 39.535 164.063, 39.776 164.750 C 40.525 166.888, 43.920 166.171, 44.512 163.750 C 44.815 162.512, 44.936 150.025, 44.781 136 L 44.500 110.500 42.250 110.180 L 40 109.861 39.763 129.180 M 60.464 112.234 C 60.172 112.994, 60.061 118.990, 60.217 125.558 C 60.482 136.739, 60.627 137.500, 62.500 137.500 C 64.397 137.500, 64.500 136.833, 64.500 124.514 C 64.500 112.932, 64.310 111.491, 62.747 111.190 C 61.783 111.004, 60.755 111.474, 60.464 112.234 M 164.701 113.632 C 163.659 114.674, 163.851 133.790, 164.910 134.444 C 165.410 134.753, 166.550 134.726, 167.443 134.383 C 169.786 133.484, 169.325 113.681, 166.951 113.227 C 166.099 113.064, 165.087 113.246, 164.701 113.632 M 30.062 116.425 C 29.298 117.346, 28.949 121.290, 29.076 127.588 C 29.323 139.806, 29.669 141.189, 32.380 140.802 C 34.378 140.517, 34.516 139.847, 34.784 129.143 C 34.972 121.626, 34.677 117.315, 33.911 116.393 C 32.447 114.629, 31.547 114.636, 30.062 116.425 M 22.657 122.451 C 21.781 124.735, 23.013 127.144, 24.876 126.785 C 25.852 126.597, 26.500 125.487, 26.500 124 C 26.500 121.186, 23.592 120.014, 22.657 122.451 M 172 123.441 C 172 126.529, 173.759 127.669, 175.633 125.796 C 177.460 123.968, 176.383 121, 173.893 121 C 172.553 121, 172 121.713, 172 123.441 M 180.667 121.667 C 179.202 123.132, 180.045 126, 181.941 126 C 184.297 126, 185.215 124.725, 184.396 122.590 C 183.770 120.957, 181.851 120.482, 180.667 121.667 M 305 125.489 C 302.525 126.193, 297.871 127.313, 294.658 127.977 C 287.477 129.461, 284.995 131.720, 285.015 136.750 C 285.033 141.018, 285.517 141.943, 288.973 144.308 C 294.121 147.831, 303.863 145.371, 307.840 139.543 C 310.215 136.062, 312.225 123.889, 310.389 124.104 C 309.900 124.161, 307.475 124.785, 305 125.489" stroke="none" fill="#0d0b0a" fill-rule="evenodd"/><path d="M -0 120.002 L -0 240.003 288.750 239.752 L 577.500 239.500 577.754 119.750 L 578.008 -0 289.004 -0 L 0 0 -0 120.002 M 0.484 120.500 C 0.484 186.500, 0.604 213.647, 0.750 180.827 C 0.896 148.007, 0.896 94.007, 0.750 60.827 C 0.604 27.647, 0.484 54.500, 0.484 120.500 M 50.627 53.529 C 50.282 54.428, 50 84.997, 50 121.459 C 50 179.169, 50.194 187.916, 51.500 189 C 52.697 189.993, 53.304 189.992, 54.507 188.994 C 55.827 187.899, 55.982 179.360, 55.757 120.122 L 55.500 52.500 53.377 52.197 C 52.125 52.018, 50.997 52.565, 50.627 53.529 M 344 110 L 344 157 353 157 L 362 157 362 110 L 362 63 353 63 L 344 63 344 110 M 377 71 L 377 79 386 79 L 395 79 395 71 L 395 63 386 63 L 377 63 377 71 M 488 110 L 488 157 497 157 L 506 157 506.094 145.750 L 506.188 134.500 510.469 130.736 L 514.749 126.972 518.224 132.736 C 520.136 135.906, 524.017 142.246, 526.850 146.823 C 529.682 151.401, 532 155.564, 532 156.073 C 532 156.587, 536.956 157, 543.107 157 C 551.909 157, 554.109 156.725, 553.706 155.677 C 553.427 154.949, 547.517 145.729, 540.572 135.188 C 533.628 124.647, 527.728 115.454, 527.461 114.758 C 527.194 114.063, 532.381 108.102, 538.988 101.512 C 545.594 94.923, 551.001 89.299, 551.002 89.016 C 551.003 88.732, 546.391 88.619, 540.752 88.764 L 530.500 89.027 518.284 101.764 L 506.068 114.500 506.034 88.750 L 506 63 497 63 L 488 63 488 110 M 103.107 88.371 C 102.300 89.344, 102.047 98.381, 102.235 119.512 C 102.478 146.796, 102.649 149.376, 104.278 150.391 C 105.655 151.250, 106.273 151.161, 107.013 150 C 108.496 147.673, 108.297 89.697, 106.800 88.200 C 105.253 86.653, 104.504 86.687, 103.107 88.371 M 248.459 88.880 C 244.742 90.568, 241.325 93.846, 238.309 98.616 C 237.304 100.205, 237.108 99.599, 237.059 94.750 L 237 89 228.500 89 L 220 89 220 123 L 220 157 228.926 157 L 237.853 157 238.176 136.750 C 238.466 118.648, 238.712 116.140, 240.500 113.105 C 243.741 107.603, 247.201 105.646, 254.511 105.180 L 261 104.767 261 95.884 L 261 87 256.750 87.022 C 254.412 87.034, 250.681 87.870, 248.459 88.880 M 287.718 88.092 C 282.102 89.414, 278.761 91.415, 274.741 95.864 C 271.552 99.395, 269.022 105.079, 269.006 108.750 C 269.002 109.658, 271.464 110, 278 110 C 286.444 110, 287 109.872, 287 107.923 C 287 106.781, 288.315 104.531, 289.923 102.923 C 292.488 100.358, 293.563 100, 298.701 100 C 305.218 100, 308.546 101.676, 310.089 105.733 C 312.322 111.608, 309.429 113.528, 294.582 116.028 C 281.108 118.296, 275.485 120.544, 271.265 125.350 C 265.933 131.424, 265.485 142.602, 270.285 149.854 C 276.033 158.541, 290.911 161.214, 302.353 155.616 C 305.540 154.057, 308.387 152.155, 308.680 151.391 C 309.681 148.784, 311.868 149.944, 312.187 153.250 L 312.500 156.500 321 156.785 L 329.500 157.071 329.257 145.285 C 329.124 138.803, 328.891 126.525, 328.741 118 C 328.493 103.976, 328.249 102.117, 326.180 98.483 C 321.765 90.726, 312.909 86.935, 299.591 87.100 C 295.141 87.156, 289.798 87.602, 287.718 88.092 M 438.500 88.490 C 436.267 89.273, 432.843 91.741, 430.750 94.075 L 427 98.257 427 93.702 L 427 89.147 418.498 88.823 L 409.995 88.500 409.998 122.750 L 410 157 418.932 157 L 427.865 157 428.182 134.250 C 428.468 113.775, 428.696 111.177, 430.456 108.266 C 433.785 102.763, 442.514 100.344, 449.483 102.994 C 454.325 104.834, 455 108.627, 455 133.968 L 455 157 464 157 L 473 157 473 131.126 C 473 97.969, 472.060 94.829, 460.500 89.377 C 454.657 86.622, 444.945 86.230, 438.500 88.490 M 186.838 111.500 C 186.516 133.389, 186.393 134.651, 184.276 137.618 C 181.335 141.741, 177.146 143.365, 170.978 142.772 C 165.399 142.236, 162.931 140.482, 160.477 135.309 C 159.008 132.214, 158.897 129.276, 159.538 110.400 L 160.264 89 151.132 89 L 142 89 142 98.035 C 142 106.658, 142.088 107.023, 143.934 106.035 C 147.134 104.323, 150.767 104.829, 152.443 107.223 C 153.675 108.981, 153.997 112.377, 153.985 123.473 C 153.976 131.188, 153.639 137.995, 153.235 138.600 C 151.717 140.873, 148.075 142.110, 146.066 141.035 C 143.167 139.484, 142.720 139.747, 143.431 142.583 C 145.826 152.125, 154.426 158, 165.999 158 C 174.299 158, 178.279 156.549, 183.890 151.481 L 188 147.767 188 152.384 L 188 157 196.500 157 L 205 157 205 123.071 L 205 89.142 196.088 88.821 L 187.176 88.500 186.838 111.500 M 92 123.871 C 92 143.818, 92.391 159.124, 92.910 159.444 C 93.410 159.753, 94.541 159.730, 95.423 159.391 C 96.858 158.841, 96.998 155.148, 96.763 124.138 L 96.500 89.500 94.250 89.180 L 92 88.861 92 123.871 M 377 123 L 377 157 386 157 L 395 157 395 123 L 395 89 386 89 L 377 89 377 123 M 81 123.893 C 81 153.038, 81.181 156.856, 82.590 157.396 C 83.465 157.732, 84.590 157.753, 85.090 157.444 C 85.607 157.125, 86 142.645, 86 123.941 L 86 91 83.500 91 L 81 91 81 123.893 M 114.250 94.731 C 112.354 95.392, 112.443 154.572, 114.341 155.300 C 117.665 156.576, 117.914 154.620, 118.001 126.467 C 118.048 111.085, 118.068 97.761, 118.044 96.857 C 117.996 95.053, 116.204 94.049, 114.250 94.731 M 71.105 97.373 C 70.301 98.342, 70.044 106.370, 70.233 124.623 L 70.500 150.500 73 150.500 L 75.500 150.500 75.788 125.255 C 76.064 101.084, 75.594 96, 73.087 96 C 72.624 96, 71.732 96.618, 71.105 97.373 M 124 123.430 L 124 144 126.521 144 L 129.041 144 128.771 123.750 C 128.501 103.605, 128.488 103.498, 126.250 103.180 L 124 102.861 124 123.430 M 145.750 109.092 C 144.233 109.966, 144.002 111.721, 144.015 122.300 C 144.031 135.191, 144.584 137.418, 147.620 136.836 C 149.322 136.510, 149.526 135.294, 149.778 123.967 C 150.079 110.434, 149.181 107.118, 145.750 109.092 M 134.466 110.229 C 134.175 110.986, 134.064 117.432, 134.219 124.553 C 134.493 137.169, 134.558 137.508, 136.778 137.823 L 139.056 138.146 138.778 123.836 C 138.531 111.121, 138.304 109.487, 136.747 109.189 C 135.783 109.004, 134.756 109.472, 134.466 110.229 M 39.763 129.180 C 39.633 139.806, 39.484 151.875, 39.432 156 C 39.380 160.125, 39.535 164.063, 39.776 164.750 C 40.525 166.888, 43.920 166.171, 44.512 163.750 C 44.815 162.512, 44.936 150.025, 44.781 136 L 44.500 110.500 42.250 110.180 L 40 109.861 39.763 129.180 M 60.464 112.234 C 60.172 112.994, 60.061 118.990, 60.217 125.558 C 60.482 136.739, 60.627 137.500, 62.500 137.500 C 64.397 137.500, 64.500 136.833, 64.500 124.514 C 64.500 112.932, 64.310 111.491, 62.747 111.190 C 61.783 111.004, 60.755 111.474, 60.464 112.234 M 164.701 113.632 C 163.659 114.674, 163.851 133.790, 164.910 134.444 C 165.410 134.753, 166.550 134.726, 167.443 134.383 C 169.786 133.484, 169.325 113.681, 166.951 113.227 C 166.099 113.064, 165.087 113.246, 164.701 113.632 M 30.062 116.425 C 29.298 117.346, 28.949 121.290, 29.076 127.588 C 29.323 139.806, 29.669 141.189, 32.380 140.802 C 34.378 140.517, 34.516 139.847, 34.784 129.143 C 34.972 121.626, 34.677 117.315, 33.911 116.393 C 32.447 114.629, 31.547 114.636, 30.062 116.425 M 22.657 122.451 C 21.781 124.735, 23.013 127.144, 24.876 126.785 C 25.852 126.597, 26.500 125.487, 26.500 124 C 26.500 121.186, 23.592 120.014, 22.657 122.451 M 172 123.441 C 172 126.529, 173.759 127.669, 175.633 125.796 C 177.460 123.968, 176.383 121, 173.893 121 C 172.553 121, 172 121.713, 172 123.441 M 180.667 121.667 C 179.202 123.132, 180.045 126, 181.941 126 C 184.297 126, 185.215 124.725, 184.396 122.590 C 183.770 120.957, 181.851 120.482, 180.667 121.667 M 305 125.489 C 302.525 126.193, 297.871 127.313, 294.658 127.977 C 287.477 129.461, 284.995 131.720, 285.015 136.750 C 285.033 141.018, 285.517 141.943, 288.973 144.308 C 294.121 147.831, 303.863 145.371, 307.840 139.543 C 310.215 136.062, 312.225 123.889, 310.389 124.104 C 309.900 124.161, 307.475 124.785, 305 125.489" stroke="none" fill="#d2c3bb" fill-rule="evenodd"/></svg>